<?xml version="1.0" standalone="no"?>
<!DOCTYPE svg PUBLIC "-//W3C//DTD SVG 20010904//EN"
 "http://www.w3.org/TR/2001/REC-SVG-20010904/DTD/svg10.dtd">
<svg version="1.0" xmlns="http://www.w3.org/2000/svg"
 width="600.000000pt" height="600.000000pt" viewBox="0 0 600.000000 600.000000"
 preserveAspectRatio="xMidYMid meet">
<metadata>
Created by potrace 1.11, written by Peter Selinger 2001-2013
</metadata>
<g transform="translate(0.000000,600.000000) scale(0.100000,-0.100000)"
fill="#000000" stroke="none">
<path d="M2265 3377 c0 -765 -3 -1418 -7 -1450 -18 -142 -92 -304 -168 -366
-96 -81 -191 -111 -365 -116 -316 -10 -490 92 -574 338 -11 32 -23 77 -27 100
-3 23 -8 53 -11 67 -2 14 -6 102 -10 195 -3 94 -7 172 -9 174 -2 2 -112 4
-244 5 l-241 1 2 -180 c1 -174 14 -311 38 -405 61 -236 178 -411 355 -532 50
-35 86 -53 211 -108 11 -5 34 -12 50 -16 17 -4 35 -8 40 -10 105 -29 185 -37
380 -37 179 0 225 3 314 22 296 63 511 210 639 438 52 94 101 265 116 408 3
22 5 355 6 740 l1 700 35 -100 c82 -231 170 -481 226 -640 33 -93 71 -201 84
-240 14 -38 26 -74 28 -80 2 -5 8 -23 14 -38 7 -16 12 -31 12 -35 0 -4 11 -36
24 -72 31 -84 62 -171 186 -525 148 -423 160 -458 170 -483 l10 -22 276 2 276
3 14 35 c12 32 93 261 306 860 43 124 88 248 98 275 21 55 210 589 259 730 17
50 34 97 38 105 6 15 43 120 141 395 27 77 100 282 162 455 62 173 134 376
160 450 27 74 64 180 84 235 20 55 36 103 36 108 0 4 -114 6 -252 5 l-253 -3
-526 -1580 c-289 -869 -530 -1579 -535 -1577 -5 2 -48 121 -95 265 -48 144
-195 591 -327 992 -133 402 -264 800 -292 885 -29 85 -53 160 -54 165 -2 6 -6
17 -9 25 -6 17 -189 573 -239 727 l-33 103 -260 0 -260 0 0 -1393z"/>
</g>
</svg>
